<?xml version="1.0" standalone="no"?>
<!DOCTYPE svg PUBLIC "-//W3C//DTD SVG 20010904//EN"
 "http://www.w3.org/TR/2001/REC-SVG-20010904/DTD/svg10.dtd">
<svg version="1.0" xmlns="http://www.w3.org/2000/svg"
 width="1024.000000pt" height="1024.000000pt" viewBox="0 0 1024.000000 1024.000000"
 preserveAspectRatio="xMidYMid meet">

<g transform="translate(0.000000,1024.000000) scale(0.100000,-0.100000)"
fill="#000000" stroke="none">
<path d="M1114 6416 c-3 -9 12 -32 36 -56 23 -23 52 -63 64 -89 21 -45 21 -57
26 -741 5 -622 8 -701 23 -755 42 -141 120 -264 220 -345 59 -48 86 -63 71
-39 -4 8 0 8 15 0 24 -13 28 -23 6 -15 -8 4 -15 3 -15 0 0 -13 122 -66 196
-86 102 -27 248 -36 344 -21 293 45 499 219 581 491 22 74 23 85 28 770 6 681
6 696 27 740 20 43 88 120 106 120 4 0 8 9 8 20 0 19 -7 20 -215 20 -202 0
-215 -1 -215 -18 0 -10 12 -25 27 -33 39 -21 81 -84 103 -157 19 -61 20 -94
20 -707 0 -388 -4 -664 -10 -696 -29 -157 -150 -290 -308 -339 -298 -92 -575
50 -632 325 -7 34 -10 278 -8 726 l3 674 33 68 c21 41 48 79 73 99 72 58 72
58 -281 58 -268 0 -322 -2 -326 -14z m1444 -151 c-3 -3 -9 2 -12 12 -6 14 -5
15 5 6 7 -7 10 -15 7 -18z m-971 -447 c-2 -29 -3 -6 -3 52 0 58 1 81 3 53 2
-29 2 -77 0 -105z m0 -105 c-3 -10 -5 -2 -5 17 0 19 2 27 5 18 2 -10 2 -26 0
-35z m0 -100 c-2 -16 -4 -5 -4 22 0 28 2 40 4 28 2 -13 2 -35 0 -50z m0 -65
c-3 -7 -5 -2 -5 12 0 14 2 19 5 13 2 -7 2 -19 0 -25z m0 -70 c-2 -13 -4 -5 -4
17 -1 22 1 32 4 23 2 -10 2 -28 0 -40z m0 -105 c-2 -16 -4 -3 -4 27 0 30 2 43
4 28 2 -16 2 -40 0 -55z m0 -145 c-2 -13 -4 -3 -4 22 0 25 2 35 4 23 2 -13 2
-33 0 -45z m0 -110 c-2 -18 -4 -6 -4 27 0 33 2 48 4 33 2 -15 2 -42 0 -60z m0
-115 c-3 -10 -5 -4 -5 12 0 17 2 24 5 18 2 -7 2 -21 0 -30z m0 -55 c-3 -7 -5
-2 -5 12 0 14 2 19 5 13 2 -7 2 -19 0 -25z m-320 -70 c-3 -8 -6 -5 -6 6 -1 11
2 17 5 13 3 -3 4 -12 1 -19z m352 -128 c6 -19 7 -30 2 -25 -5 6 -13 24 -17 40
-9 39 0 30 15 -15z m358 -306 c-3 -3 -12 -4 -19 -1 -8 3 -5 6 6 6 11 1 17 -2
13 -5z m160 -10 c-3 -3 -12 -4 -19 -1 -8 3 -5 6 6 6 11 1 17 -2 13 -5z"/>
<path d="M4563 6271 c-113 -52 -138 -235 -43 -315 93 -78 247 -50 300 54 37
72 20 182 -36 231 -59 51 -147 63 -221 30z"/>
<path d="M6270 5300 l0 -980 159 0 160 0 3 443 c3 436 4 443 27 501 48 119
152 182 291 174 125 -7 216 -70 257 -177 15 -41 18 -96 21 -493 l3 -448 165 0
165 0 -3 498 c-4 446 -6 503 -22 552 -29 88 -62 144 -122 209 -98 107 -245
158 -419 148 -146 -9 -254 -58 -326 -149 l-39 -50 0 376 0 376 -160 0 -160 0
0 -980z"/>
<path d="M3585 5716 c-106 -27 -195 -81 -246 -150 l-29 -40 0 87 0 87 -165 0
-165 0 0 -690 0 -690 165 0 164 0 3 453 c3 451 3 452 27 504 51 113 155 170
297 161 123 -8 218 -81 255 -196 9 -26 13 -174 16 -477 l4 -440 165 -3 165 -2
-3 497 c-4 447 -6 504 -22 553 -77 235 -253 361 -501 359 -44 0 -102 -6 -130
-13z"/>
<path d="M5410 5724 c-179 -33 -307 -119 -367 -248 -25 -55 -28 -71 -28 -171
0 -100 3 -115 28 -166 35 -72 101 -133 183 -170 35 -16 149 -51 254 -79 209
-54 236 -65 274 -110 30 -36 33 -76 10 -125 -20 -42 -45 -59 -120 -81 -144
-42 -309 23 -329 129 l-6 32 -157 -1 c-93 -1 -158 -6 -159 -11 -8 -22 28 -158
52 -198 58 -101 179 -183 315 -216 73 -18 299 -18 370 0 92 22 195 77 251 133
153 153 156 419 7 553 -75 68 -155 101 -358 151 -100 25 -199 53 -220 64 -53
27 -80 65 -80 111 0 55 16 83 64 110 35 21 54 24 136 24 80 0 102 -4 138 -23
46 -24 82 -73 82 -109 0 -23 1 -23 165 -23 91 0 165 4 165 8 0 5 -5 35 -11 67
-29 158 -144 277 -319 330 -54 16 -284 29 -340 19z"/>
<path d="M8200 5723 c-100 -15 -200 -58 -273 -115 -76 -61 -129 -167 -151
-305 l-5 -33 164 0 165 0 0 25 c0 99 114 164 263 152 141 -12 213 -78 224
-205 l6 -72 -29 0 c-56 -1 -419 -29 -454 -36 -170 -32 -279 -91 -344 -187 -50
-75 -70 -152 -63 -254 14 -239 215 -403 492 -403 149 1 274 53 368 154 l37 41
0 -83 0 -82 156 0 155 0 -3 503 c-4 489 -4 504 -26 569 -60 178 -204 295 -404
328 -60 9 -225 12 -278 3z m388 -870 c-5 -102 -26 -151 -84 -203 -139 -122
-399 -109 -463 23 -25 51 -26 76 -7 120 42 99 121 120 535 146 23 1 23 0 19
-86z"/>
<path d="M4480 5010 l0 -690 163 0 162 0 0 690 0 690 -162 0 -163 0 0 -690z"/>
</g>
</svg>
